<svg height="512" viewBox="0 0 512 512" width="512" xmlns="http://www.w3.org/2000/svg"><g><g><g><g fill="#ffdaaa"><path d="m352.25 127.58v80a96 96 0 0 1 -192 0v-80z"/><path d="m304.25 290.73v38.38l-.63-.24-47.37 54.71s-47-55-47.37-54.71l-.63.24v-38.38a96.075 96.075 0 0 0 96 0z"/><path d="m352.25 151.585h12a20 20 0 0 1 20 20v24a20 20 0 0 1 -20 20h-12a0 0 0 0 1 0 0v-64a0 0 0 0 1 0 0z"/><path d="m128.25 151.585h12a20 20 0 0 1 20 20v24a20 20 0 0 1 -20 20h-12a0 0 0 0 1 0 0v-64a0 0 0 0 1 0 0z" transform="matrix(-1 0 0 -1 288.5 367.17)"/></g><path d="m184.25 495.58h-120v-56.4a80.006 80.006 0 0 1 58.34-77.01l22.22-8.58z" fill="#57565c"/><path d="m228.39 407.96-8.02.04 1.66 5.52-29.78 26.06-15.15-98.45 5.11-1.97 26.04-10.05.63-.24c.62 0 46.64 53.86 47.36 54.7l.01.01z" fill="#e0e0e2"/><path d="m335.4 341.13-15.15 98.45-29.68-26.43 1.66-5.52-7.81.04-27.68-24.65 1.01-1.17.27-.31 45.6-52.67.63.24 25.96 10.02z" fill="#e0e0e2"/><path d="m290.57 413.15-10.32 34.43h-48l-10.22-34.06 6.36-5.56 27.86-24.38.49-.56 27.68 24.65z" fill="#ff5023"/><path d="m228.39 407.96-6.36 5.56-1.66-5.52z" fill="#e0e0e2"/><path d="m292.23 407.63-1.66 5.52-6.15-5.48z" fill="#e0e0e2"/><path d="m448.25 439.18v56.4h-120l39.44-141.99 22.22 8.58a80.006 80.006 0 0 1 58.34 77.01z" fill="#57565c"/><path d="m367.69 353.59-39.44 141.99h-144l-39.44-141.99 32.29-12.46 15.15 98.45 29.78-26.06 10.22 34.06h48l10.32-34.43 29.68 26.43 15.15-98.45z" fill="#e0e0e2"/></g><path d="m352.25 143.585a579.982 579.982 0 0 0 -192 0v-64a579.982 579.982 0 0 1 192 0z" fill="#898890"/><path d="m352.25 79.585 96-16-192-48-192 48 96 16" fill="#57565c"/><circle cx="416.25" cy="135.585" fill="#ffda44" r="16"/><path d="m288.25 495.58h-64l8-48h48z" fill="#ff5023"/><path d="m220.37 408 8.02-.04-6.36 5.56z" fill="#e0e0e2"/><path d="m292.23 407.63-1.66 5.52-6.15-5.48z" fill="#e0e0e2"/><path d="m182.21 339.16-5.11 1.97" fill="none"/><g fill="#e0e0e2"><path d="m228.39 407.96-6.36 5.56-1.66-5.52z"/><path d="m256.25 382.58 1.77-1.04-.27.31-1.01 1.17z"/><path d="m292.23 407.63-1.66 5.52-6.15-5.48z"/></g><path d="m335.4 341.13-5.19-2" fill="none"/><path d="m144.81 353.59-.56-2.01" fill="none"/><path d="m368.25 351.58-.56 2.01" fill="none"/></g><g><path d="m392.2 354.99-80.2-30.95v-28.44a104.19 104.19 0 0 0 46.77-71.6h5.23a28.031 28.031 0 0 0 28-28v-24a28.031 28.031 0 0 0 -28-28h-4v-57.22l48-8v34.6a24 24 0 1 0 16 0v-37.27l25.32-4.22a8 8 0 0 0 .62-15.65l-192-48a7.961 7.961 0 0 0 -3.88 0l-192 48a8 8 0 0 0 .62 15.65l89.32 14.89v57.22h-4a28.031 28.031 0 0 0 -28 28v24a28.031 28.031 0 0 0 28 28h5.23a104.19 104.19 0 0 0 46.77 71.6v28.44l-80.2 30.95a88.341 88.341 0 0 0 -63.8 84.61v56.4a8 8 0 0 0 8 8h384a8 8 0 0 0 8-8v-56.4a88.341 88.341 0 0 0 -63.8-84.61zm-240.2-146.99h-4a12.01 12.01 0 0 1 -12-12v-24a12.01 12.01 0 0 1 12-12h4zm175.37 139.13-12.88 77.25-46.79-41.67 38.04-43.93zm-71.33 24.61c-4.52-5.28-39.81-46.08-40.04-46.33v-21.41a104 104 0 0 0 80 0v21.58zm87.96-237.11a590.852 590.852 0 0 0 -176 0v-47.81a574.481 574.481 0 0 1 176 0zm20 25.37a12.01 12.01 0 0 1 12 12v24a12.01 12.01 0 0 1 -12 12h-4v-48zm52-32a8 8 0 1 1 -8 8 8.011 8.011 0 0 1 8-8zm-312.74-65.57 152.74-38.18 152.74 38.18-56.76 9.46a591.058 591.058 0 0 0 -191.96 0zm64.74 145.57v-57.17a574.481 574.481 0 0 1 176 0v57.17a88 88 0 0 1 -176 0zm38.43 130.71c7.27 8.25 24.78 28.62 38.35 44.48l-47.25 41.34-12.9-77.4zm-78.43 149.29v-32a8 8 0 0 0 -16 0v32h-40v-48.4a72.26 72.26 0 0 1 52.51-69.31c.24-.07 12.74-4.88 12.74-4.88l36.06 122.59zm89.22 0h-27.23l-37.76-128.37 17.16-6.62 14.72 88.31a7.975 7.975 0 0 0 5.2 6.21 7.777 7.777 0 0 0 2.69.47 7.978 7.978 0 0 0 5.27-1.98l17.77-15.55 8.66 18.66zm16.22 0 5.34-32h34.44l5.34 32zm41.44-48h-37.77l-9.53-20.51 28.94-25.31 28 24.94zm19.9 48-6.48-38.88 8.71-18.88 17.67 15.73a8 8 0 0 0 13.21-4.65l14.72-88.31 17.16 6.62-37.76 128.37zm145.22 0h-40v-32a8 8 0 0 0 -16 0v32h-45.31l36.06-122.59s12.5 4.81 12.74 4.88a72.26 72.26 0 0 1 52.51 69.31z"/><path d="m216 160a8 8 0 0 0 -8 8v16a8 8 0 0 0 16 0v-16a8 8 0 0 0 -8-8z"/><path d="m296 192a8 8 0 0 0 8-8v-16a8 8 0 0 0 -16 0v16a8 8 0 0 0 8 8z"/><path d="m280 248a8 8 0 0 0 -8-8h-32a8 8 0 0 0 0 16h32a8 8 0 0 0 8-8z"/></g></g></svg>